<?xml version="1.0" encoding="UTF-8"?>
<svg id="Calque_1" xmlns="http://www.w3.org/2000/svg" version="1.1" viewBox="0 0 850 701">
  <!-- Generator: Adobe Illustrator 30.0.0, SVG Export Plug-In . SVG Version: 2.1.1 Build 123)  -->
  <defs>
    <style>
      .st0 {
        fill: #b99a6d;
      }

      .st1 {
        fill: #b8996e;
        isolation: isolate;
        opacity: .4;
      }

      .st2 {
        fill: #cdb89a;
      }

      .st3 {
        fill: #ffdd28;
      }
    </style>
  </defs>
  <path id="card_x5F_diffusion" class="st0" d="M801.2,571.6l-61.2-444.3-199.2,27.4-18.3,218.5-69.3-5.8,120.5,69.6-91.2,158,2.8,20.1,316-43.5Z"/>
  <path id="card_x5F_operation" class="st1" d="M75.1,335.7l.8-9.4L0,457.8l421.2,243.2,61.2-106-31.3-227.7-376-31.6Z"/>
  <path id="card_x5F_prospectif" class="st1" d="M450.9,366.2l-26.9-195.4,116.7-16.1,5.7-68.2L99.1,49l-23.3,277.4,76.5-132.6,298.5,172.4Z"/>
  <g id="across">
    <path class="st2" d="M450.9,366.2l2.2,1.3,69.3,5.8,18.3-218.5-116.7,16.1,26.9,195.4Z"/>
    <path class="st2" d="M453.2,367.5l-2.1-.2,31.3,227.7,91.2-158-120.5-69.6Z"/>
    <path class="st2" d="M450.9,366.2l2.2,1.3-2.1-.2-376-31.6.8-9.4,76.5-132.6,298.5,172.4Z"/>
  </g>
  <g id="icon_x5F_diffusion_x5F_03">
    <path class="st3" d="M716.5,634c33.4,0,60.5-26.9,60.5-60s-27.1-60-60.5-60-60.5,26.9-60.5,60,27.1,60,60.5,60Z"/>
    <path d="M677.9,578.7v-8.3h6.2v1.5h-3.7c-.4,0-.6.2-.6.6v.4c0,.3.2.6.6.6h3.4v1.5h-3.4c-.4,0-.6.3-.6.6v1.1c0,.4.2.6.6.6h3.7v1.5h-6.2ZM681.8,569.6h-1.2l1.2-1.7h2l-2,1.7Z"/>
    <path d="M684.9,570.4h2.1l2,4.9c.2.6.8.6,1,0l2-4.9h2l-3.5,8.3h-2l-3.5-8.3h0Z"/>
    <path d="M695,578.7v-8.3h6.2v1.5h-3.7c-.4,0-.6.2-.6.6v.4c0,.3.2.6.6.6h3.4v1.5h-3.4c-.4,0-.6.3-.6.6v1.1c0,.4.2.6.6.6h3.7v1.5h-6.2ZM697.7,569.6l-2-1.7h2l1.2,1.7h-1.2Z"/>
    <path d="M702.9,578.7v-8.3h2.3l3,4.5c.3.4.8.3.8-.2v-4.2h1.8v8.3h-2.1l-3.2-4.8c-.3-.4-.8-.3-.8.2v4.6h-1.8,0Z"/>
    <path d="M712.9,578.7v-8.3h6.2v1.5h-3.7c-.4,0-.6.2-.6.6v.4c0,.3.2.6.6.6h3.4v1.5h-3.4c-.4,0-.6.3-.6.6v1.1c0,.4.2.6.6.6h3.7v1.5h-6.2Z"/>
    <path d="M720.8,578.7v-8.3h2.9l1.8,4.5c.2.4.7.4.9,0l1.8-4.5h2.7v8.3h-1.8v-4.7c0-.5-.6-.6-.8-.1l-1.9,4.8h-1.2l-1.9-4.8c-.2-.5-.8-.4-.8.1v4.7h-1.8Z"/>
    <path d="M733,578.7v-8.3h6.2v1.5h-3.7c-.4,0-.6.2-.6.6v.4c0,.3.2.6.6.6h3.4v1.5h-3.4c-.4,0-.6.3-.6.6v1.1c0,.4.2.6.6.6h3.7v1.5h-6.2Z"/>
    <path d="M740.9,578.7v-8.3h2.3l3,4.5c.3.4.8.3.8-.2v-4.2h1.8v8.3h-2.1l-3.2-4.8c-.3-.4-.8-.3-.8.2v4.6h-1.8,0Z"/>
    <path d="M750.1,571.9v-1.5h7.3v1.5h-2c-.4,0-.7.2-.7.7v6.2h-1.9v-6.2c0-.4-.3-.7-.7-.7h-2,0Z"/>
  </g>
  <g id="icon_x5F_diffusion_x5F_02">
    <path class="st3" d="M789.5,524c33.4,0,60.5-26.9,60.5-60s-27.1-60-60.5-60-60.5,26.9-60.5,60,27.1,60,60.5,60Z"/>
    <path d="M743.8,460.8v-8.3h4.6c1.7,0,2.9,1.1,2.9,2.4s-1.1,2.4-2.9,2.4h-2.1c-.4,0-.6.2-.6.6v3h-1.9ZM745.7,455.3c0,.3.2.6.6.6h2c.6,0,1-.4,1-.9s-.4-.9-1-.9h-2c-.4,0-.6.2-.6.6v.7Z"/>
    <path d="M752.4,457.5v-5h1.9v5.1c0,1.1.6,1.7,1.7,1.7s1.6-.7,1.6-1.7v-5.1h1.9v5c0,2.2-1.4,3.4-3.6,3.4s-3.6-1.2-3.6-3.4h0Z"/>
    <path d="M761.5,460.8v-8.3h3.7c1.8,0,2.8.9,2.8,2s-.2.9-.7,1.3c-.1,0-.2.2-.2.3s0,.2.2.3c.8.4,1.1,1.1,1.1,1.9,0,1.4-1.1,2.5-3.2,2.5h-3.8,0ZM765.3,455.6c.5,0,.9-.3.9-.8s-.4-.8-.9-.8h-1.2c-.4,0-.7.2-.7.7v.3c0,.4.3.7.7.7h1.2ZM765.3,459.4c.7,0,1.2-.5,1.2-1.1s-.5-1.2-1.2-1.2h-1.2c-.4,0-.7.2-.7.6v1c0,.4.3.7.7.7h1.2Z"/>
    <path d="M770,460.8v-8.3h1.9v6.1c0,.4.3.7.7.7h2.6v1.5h-5.3Z"/>
    <path d="M776.6,460.8v-8.3h1.9v8.3h-1.9Z"/>
    <path d="M780.1,456.7c0-2.4,2-4.3,4.7-4.3s4.3,1.5,4.6,3.5h-2.2c-.2-1.1-1.2-1.9-2.4-1.9s-2.6,1.2-2.6,2.7,1.1,2.7,2.6,2.7,2.2-.7,2.4-1.8h2.2c-.3,2-2.1,3.4-4.6,3.4s-4.7-1.9-4.7-4.3Z"/>
    <path d="M789.6,460.8l3.4-8.3h2l3.4,8.3h-2l-.8-2c-.1-.3-.4-.5-.8-.5h-1.7c-.4,0-.6.2-.8.5l-.8,2h-2,0ZM794.5,456.9c.2,0,.3-.1.2-.4l-.6-1.5c-.1-.3-.4-.3-.5,0l-.6,1.5c0,.2,0,.4.2.4h1.2Z"/>
    <path d="M797.7,454v-1.5h7.3v1.5h-2c-.4,0-.7.2-.7.7v6.2h-1.9v-6.2c0-.4-.3-.7-.7-.7h-2,0Z"/>
    <path d="M806.3,460.8v-8.3h1.9v8.3h-1.9Z"/>
    <path d="M809.8,456.7c0-2.4,1.9-4.3,4.6-4.3s4.6,1.9,4.6,4.3-1.9,4.3-4.6,4.3-4.6-1.9-4.6-4.3ZM817.1,456.7c0-1.5-1-2.7-2.6-2.7s-2.6,1.2-2.6,2.7,1,2.7,2.6,2.7,2.6-1.2,2.6-2.7Z"/>
    <path d="M820.6,460.8v-8.3h2.3l3,4.5c.3.4.8.3.8-.2v-4.2h1.8v8.3h-2.1l-3.2-4.8c-.3-.4-.8-.3-.8.2v4.6h-1.8,0Z"/>
    <path d="M836.1,451.4h1.9l-6.4,10.9h-1.9l6.4-10.9Z"/>
    <path d="M763.7,475v-8.3h6.2v1.5h-3.7c-.4,0-.6.2-.6.6v.4c0,.3.2.6.6.6h3.4v1.5h-3.4c-.4,0-.6.3-.6.6v1.1c0,.4.2.6.6.6h3.7v1.5h-6.2ZM767.6,465.9h-1.2l1.2-1.7h2l-2,1.7Z"/>
    <path d="M771.6,475v-8.3h2.9c3,0,4.5,1.8,4.5,4.1s-1.6,4.1-4.5,4.1h-2.9,0ZM773.6,472.7c0,.4.3.7.8.7h.3c1.3,0,2.4-.8,2.4-2.6s-1-2.6-2.4-2.6h-.2c-.5,0-.8.3-.8.7v3.7h0Z"/>
    <path d="M780.6,475v-8.3h1.9v8.3h-1.9Z"/>
    <path d="M783.7,468.2v-1.5h7.3v1.5h-2c-.4,0-.7.2-.7.7v6.2h-1.9v-6.2c0-.4-.3-.7-.7-.7h-2,0Z"/>
    <path d="M792.3,475v-8.3h1.9v8.3h-1.9Z"/>
    <path d="M795.8,470.8c0-2.4,1.9-4.3,4.6-4.3s4.6,1.9,4.6,4.3-1.9,4.3-4.6,4.3-4.6-1.9-4.6-4.3ZM803.1,470.8c0-1.5-1-2.7-2.6-2.7s-2.6,1.2-2.6,2.7,1,2.7,2.6,2.7,2.6-1.2,2.6-2.7Z"/>
    <path d="M806.6,475v-8.3h2.3l3,4.5c.3.4.8.3.8-.2v-4.2h1.8v8.3h-2.1l-3.2-4.8c-.3-.4-.8-.3-.8.2v4.6h-1.8,0Z"/>
  </g>
  <g id="icon_x5F_diffusion_x5F_01">
    <path class="st3" d="M670.5,277c33.4,0,60.5-26.9,60.5-60s-27.1-60-60.5-60-60.5,26.9-60.5,60,27.1,60,60.5,60Z"/>
    <path d="M646.5,221.9v-8.3h4.8c1.7,0,2.7,1,2.7,2.3s-.9,2-2.2,2.1c-.5,0-.6.4-.3.8l2.6,3.2h-2.3l-2.7-3.5c-.3-.4-.8-.3-.8.3v3.2h-1.9ZM648.4,216.1c0,.3.2.6.6.6h2.2c.5,0,.9-.4.9-.8s-.4-.8-.9-.8h-2.2c-.4,0-.6.2-.6.6v.5Z"/>
    <path d="M655.5,221.9v-8.3h6.2v1.5h-3.7c-.4,0-.6.2-.6.6v.4c0,.3.2.6.6.6h3.4v1.5h-3.4c-.4,0-.6.3-.6.6v1.1c0,.4.2.6.6.6h3.7v1.5h-6.2ZM659.4,212.9h-1.2l1.2-1.7h2l-2,1.7Z"/>
    <path d="M664.9,219.6c0,.7.5,1.1,1.3,1.1s1.2-.4,1.2-.9-.3-.8-1-1l-1.1-.3c-1.2-.4-2.2-1.2-2.2-2.3s1.2-2.4,3.1-2.4,3.1.9,3.2,2.5h-1.9c0-.7-.6-1-1.2-1s-1.2.4-1.2.9.3.7,1,.9l1.1.3c1.4.4,2.2,1.3,2.2,2.4s-1.2,2.5-3.1,2.5-3.1-.9-3.2-2.5h1.9,0Z"/>
    <path d="M670.9,221.9v-8.3h6.2v1.5h-3.7c-.4,0-.6.2-.6.6v.4c0,.3.2.6.6.6h3.4v1.5h-3.4c-.4,0-.6.3-.6.6v1.1c0,.4.2.6.6.6h3.7v1.5h-6.2Z"/>
    <path d="M677.9,221.9l3.4-8.3h2l3.4,8.3h-2l-.8-2c-.1-.3-.4-.5-.8-.5h-1.7c-.4,0-.6.2-.8.5l-.8,2h-2,0ZM682.9,218c.2,0,.3-.1.2-.4l-.6-1.5c-.1-.3-.4-.3-.5,0l-.6,1.5c0,.2,0,.4.2.4h1.2Z"/>
    <path d="M687.4,218.6v-5h1.9v5.1c0,1.1.6,1.7,1.7,1.7s1.6-.7,1.6-1.7v-5.1h1.9v5c0,2.2-1.4,3.4-3.6,3.4s-3.6-1.2-3.6-3.4h0Z"/>
  </g>
  <g id="icon_x5F_operation_x5F_02">
    <path class="st3" d="M260.2,689.3c31.6,0,57.2-25.6,57.2-57.2s-25.6-57.2-57.2-57.2-57.2,25.6-57.2,57.2,25.6,57.2,57.2,57.2Z"/>
    <path d="M244.2,637.4v-7.9h2.2l2.8,4.3c.3.4.8.3.8-.2v-4h1.7v7.9h-2l-3-4.6c-.3-.4-.8-.3-.8.2v4.4h-1.7Z"/>
    <path d="M253.6,637.4v-7.9h5.9v1.4h-3.5c-.4,0-.6.2-.6.6v.4c0,.3.2.5.6.5h3.2v1.4h-3.2c-.4,0-.6.2-.6.6v1c0,.3.2.6.6.6h3.5v1.4h-5.9Z"/>
    <path d="M261,634.3v-4.7h1.8v4.8c0,1,.6,1.7,1.6,1.7s1.5-.6,1.5-1.7v-4.8h1.8v4.7c0,2.1-1.4,3.3-3.4,3.3s-3.4-1.2-3.4-3.3h0Z"/>
    <path d="M269.6,637.4v-7.9h5.9v1.4h-3.4c-.3,0-.6.2-.6.6v.4c0,.3.2.6.6.6h3.2v1.4h-3.2c-.3,0-.6.2-.6.6v3h-1.8Z"/>
  </g>
  <g id="icon_x5F_operation_x5F_01">
    <path class="st3" d="M379.2,645.3c31.6,0,57.2-25.6,57.2-57.2s-25.6-57.2-57.2-57.2-57.2,25.6-57.2,57.2,25.6,57.2,57.2,57.2Z"/>
    <path d="M349.9,579v-7.9h5.9v1.4h-3.5c-.4,0-.6.2-.6.6v.4c0,.3.2.5.6.5h3.2v1.4h-3.2c-.4,0-.6.2-.6.6v1c0,.3.2.6.6.6h3.5v1.4h-5.9Z"/>
    <path d="M356.4,579l3.4-3.7c.2-.2.2-.5,0-.7l-3.1-3.5h2.3l1.9,2.2c.2.3.6.3.8,0l1.9-2.2h2.1l-3.1,3.4c-.2.2-.2.5,0,.7l3.4,3.7h-2.2l-2.1-2.5c-.2-.3-.6-.3-.8,0l-2.2,2.5h-2.1Z"/>
    <path d="M366.8,579v-7.9h1.8v7.9h-1.8Z"/>
    <path d="M371.9,576.8c0,.6.5,1,1.2,1s1.1-.4,1.1-.9-.2-.8-1-1l-1-.3c-1.2-.4-2-1.1-2-2.2s1.2-2.3,2.9-2.3,2.9.9,3,2.4h-1.8c0-.7-.5-1-1.2-1s-1.1.4-1.1.9.3.7.9.9l1.1.3c1.4.4,2.1,1.2,2.1,2.3s-1.2,2.4-2.9,2.4-2.9-.9-3-2.4h1.8,0Z"/>
    <path d="M376.7,572.6v-1.4h6.9v1.4h-1.9c-.4,0-.6.2-.6.6v5.9h-1.8v-5.9c0-.4-.2-.6-.6-.6h-1.9,0Z"/>
    <path d="M383,579l3.2-7.9h1.9l3.2,7.9h-1.9l-.7-1.9c-.1-.3-.4-.5-.7-.5h-1.6c-.4,0-.6.2-.7.5l-.7,1.9h-1.9,0ZM387.7,575.3c.2,0,.3-.1.2-.4l-.5-1.4c0-.3-.4-.3-.5,0l-.6,1.4c0,.2,0,.4.2.4h1.1Z"/>
    <path d="M392.4,579v-7.9h2.2l2.8,4.3c.3.4.8.3.8-.2v-4h1.7v7.9h-2l-3-4.6c-.3-.4-.8-.3-.8.2v4.4h-1.7Z"/>
    <path d="M401,572.6v-1.4h6.9v1.4h-1.9c-.4,0-.6.2-.6.6v5.9h-1.8v-5.9c0-.4-.2-.6-.6-.6h-1.9,0Z"/>
    <path d="M335.1,589.2v-1.1h5.7c.2,0,.3-.2.1-.4l-1.6-1.5h1.7l2.3,2.4-2.3,2.4h-1.7l1.6-1.5c.2-.2.1-.3-.1-.3h-5.7Z"/>
    <path d="M347.6,592.5v-5.6h1.2v.3c0,.1,0,.2.1.2.2,0,.4-.6,1.3-.6s1.4.6,1.2,2v.3h-1.2v-.7c0-.4-.2-.6-.5-.6-.5,0-1,.6-1,1.8v3.1h-1.2Z"/>
    <path d="M355.3,586.8c1.5,0,2.6,1.1,2.6,2.7s0,.3,0,.4h-3.8c-.2,0-.3,0-.3.4,0,.7.6,1.5,1.6,1.5s1.2-.3,1.4-.9h1.2c-.3,1.1-1.3,1.8-2.6,1.8s-2.8-1.3-2.8-3,1.2-2.9,2.8-2.9h0ZM356.5,589c.2,0,.3,0,.3-.2,0-.4-.5-1-1.4-1s-1.5.7-1.5,1,0,.2.3.2h2.4ZM355.8,586.1h-.9l.8-2h1.4l-1.4,2Z"/>
    <path d="M359.2,591c0-1.1.9-1.7,2.2-1.8h1.2c.3-.1.5-.2.5-.5,0-.6-.4-.9-1.2-.9s-1.1.3-1.2.8h-1.2c.1-1,1-1.7,2.5-1.7s2.3.7,2.3,1.9v3.8h-1.2v-.2c0-.2-.1-.3-.3-.2-.6.3-1.2.5-1.7.5-1,0-1.8-.7-1.8-1.7ZM362.7,591.2c.3-.2.4-.4.4-.5v-.4c0-.3-.1-.4-.5-.3h-1.1c-.7.2-1.1.5-1.1,1s.3.8.9.8.9-.1,1.3-.4h0Z"/>
    <path d="M365.5,587.8v-.9h1c.3,0,.4-.1.4-.4v-.4c0-.6.4-1.2,1.3-1.2h1.2v1h-.8c-.2,0-.4,0-.4.4v.3c0,.2.1.4.4.4h1.3v.9h-1.3c-.3,0-.4.1-.4.4v4.3h-1.2v-4.3c0-.3-.1-.4-.4-.4h-1Z"/>
    <path d="M370.4,587.8v-.9h1c.3,0,.4-.1.4-.4v-.4c0-.6.4-1.2,1.3-1.2h1.2v1h-.8c-.2,0-.4,0-.4.4v.3c0,.2.1.4.4.4h1.3v.9h-1.3c-.3,0-.4.1-.4.4v4.3h-1.2v-4.3c0-.3-.1-.4-.4-.4h-1Z"/>
    <path d="M378.2,586.8c1.5,0,2.6,1.1,2.6,2.7s0,.3,0,.4h-3.8c-.2,0-.3,0-.3.4,0,.7.6,1.5,1.6,1.5s1.2-.3,1.4-.9h1.2c-.3,1.1-1.3,1.8-2.6,1.8s-2.8-1.3-2.8-3,1.2-2.9,2.8-2.9h0ZM379.3,589c.2,0,.3,0,.3-.2,0-.4-.5-1-1.4-1s-1.5.7-1.5,1,0,.2.3.2h2.4Z"/>
    <path d="M382,589.7c0-1.6,1.2-2.9,3-2.9s2.7,1,2.9,2.3h-1.2c-.2-.8-.8-1.3-1.7-1.3s-1.8.9-1.8,1.9.7,1.9,1.8,1.9,1.5-.5,1.7-1.3h1.2c-.2,1.3-1.3,2.3-2.9,2.3s-3-1.3-3-2.9Z"/>
    <path d="M388.7,587.9v-1h.8c.4,0,.5-.2.5-.6v-.7l1.2-1v1.7c0,.4.2.6.5.6h1v1h-1c-.4,0-.5.2-.5.6v2.4c0,.5.2.7.6.7h1.4v1h-1.4c-1.1,0-1.8-.6-1.8-1.7v-2.4c0-.4-.2-.6-.5-.6h-.8,0Z"/>
    <path d="M394.1,591c0-1.1.9-1.7,2.2-1.8h1.2c.3-.1.5-.2.5-.5,0-.6-.4-.9-1.2-.9s-1.1.3-1.2.8h-1.2c.1-1,1-1.7,2.5-1.7s2.3.7,2.3,1.9v3.8h-1.2v-.2c0-.2-.1-.3-.3-.2-.6.3-1.2.5-1.7.5-1,0-1.8-.7-1.8-1.7ZM397.6,591.2c.3-.2.4-.4.4-.5v-.4c0-.3-.1-.4-.5-.3h-1.1c-.7.2-1.1.5-1.1,1s.3.8.9.8.9-.1,1.3-.4h0Z"/>
    <path d="M400.4,587.9v-1h.8c.4,0,.5-.2.5-.6v-.7l1.2-1v1.7c0,.4.2.6.5.6h1v1h-1c-.4,0-.5.2-.5.6v2.4c0,.5.2.7.6.7h1.4v1h-1.4c-1.1,0-1.8-.6-1.8-1.7v-2.4c0-.4-.2-.6-.5-.6h-.8,0Z"/>
    <path d="M406,585.3c0-.4.3-.8.8-.8s.8.4.8.8-.3.8-.8.8-.8-.4-.8-.8ZM406.3,592.5v-5.6h1.2v5.6h-1.2Z"/>
    <path d="M409.1,589.7c0-1.6,1.2-2.9,3-2.9s3,1.3,3,2.9-1.2,2.9-3,2.9-3-1.3-3-2.9ZM414,589.7c0-1.1-.7-1.9-1.8-1.9s-1.8.9-1.8,1.9.7,1.9,1.8,1.9,1.8-.9,1.8-1.9Z"/>
    <path d="M416.9,592.5v-5.6h1.2v.3c0,.3.2.3.3.2.3-.3.8-.6,1.4-.6,1.1,0,1.8.9,1.8,2v3.7h-1.2v-3.6c0-.7-.4-1.1-.9-1.1-.8,0-1.4.9-1.4,1.7v3.1h-1.2Z"/>
    <path d="M342.4,602.7v-1.1h5.7c.2,0,.3-.2.1-.4l-1.6-1.5h1.7l2.3,2.4-2.3,2.4h-1.7l1.6-1.5c.2-.2.1-.3-.1-.3h-5.7Z"/>
    <path d="M354.9,606v-5.6h1.2v.3c0,.1,0,.2.1.2.2,0,.4-.6,1.3-.6s1.4.6,1.2,2v.3h-1.2v-.7c0-.4-.2-.6-.5-.6-.5,0-1,.6-1,1.8v3.1h-1.2Z"/>
    <path d="M362.6,600.3c1.5,0,2.6,1.1,2.6,2.7s0,.3,0,.4h-3.8c-.2,0-.3,0-.3.4,0,.7.6,1.5,1.6,1.5s1.2-.3,1.4-.9h1.2c-.3,1.1-1.3,1.8-2.6,1.8s-2.8-1.3-2.8-3,1.2-2.9,2.8-2.9h0ZM363.7,602.5c.2,0,.3,0,.3-.2,0-.4-.5-1-1.4-1s-1.5.7-1.5,1,0,.2.3.2h2.4ZM363.1,599.5h-.9l.8-2h1.4l-1.4,2Z"/>
    <path d="M366.9,606v-5.6h1.2v.3c0,.3.2.3.3.2.3-.3.8-.6,1.4-.6,1.1,0,1.8.9,1.8,2v3.7h-1.2v-3.6c0-.7-.4-1.1-.9-1.1-.8,0-1.5.9-1.5,1.7v3.1h-1.2Z"/>
    <path d="M373.3,603.2c0-1.6,1.2-2.9,3-2.9s3,1.3,3,2.9-1.2,2.9-3,2.9-3-1.3-3-2.9ZM378.1,603.2c0-1.1-.7-1.9-1.8-1.9s-1.8.9-1.8,1.9.7,1.9,1.8,1.9,1.8-.9,1.8-1.9Z"/>
    <path d="M380.1,600.4h1.3l1.5,3.7c.1.3.4.3.6,0l1.5-3.7h1.2l-2.3,5.6h-1.4l-2.3-5.6h0Z"/>
    <path d="M386.9,604.5c0-1.1.9-1.7,2.2-1.8h1.2c.3-.1.5-.2.5-.5,0-.6-.4-.9-1.2-.9s-1.1.3-1.2.8h-1.2c.1-1,1-1.7,2.5-1.7s2.3.7,2.3,1.9v3.8h-1.2v-.2c0-.2-.1-.3-.3-.2-.6.4-1.2.5-1.7.5-1,0-1.8-.7-1.8-1.7ZM390.3,604.7c.3-.2.4-.4.4-.5v-.4c0-.3-.1-.4-.5-.3h-1.1c-.7.2-1.1.5-1.1,1s.3.8.9.8.9-.1,1.3-.4Z"/>
    <path d="M393.2,601.3v-1h.8c.4,0,.5-.2.5-.6v-.7l1.2-1v1.7c0,.4.2.6.5.6h1v1h-1c-.4,0-.5.2-.5.6v2.4c0,.5.2.7.6.7h1.4v1h-1.4c-1.1,0-1.8-.6-1.8-1.7v-2.4c0-.4-.2-.6-.5-.6h-.8,0Z"/>
    <path d="M398.8,598.8c0-.4.3-.8.8-.8s.8.4.8.8-.4.8-.8.8-.8-.4-.8-.8ZM399,606v-5.6h1.2v5.6h-1.2Z"/>
    <path d="M401.9,603.2c0-1.6,1.2-2.9,3-2.9s3,1.3,3,2.9-1.2,2.9-3,2.9-3-1.3-3-2.9ZM406.7,603.2c0-1.1-.7-1.9-1.8-1.9s-1.8.9-1.8,1.9.7,1.9,1.8,1.9,1.8-.9,1.8-1.9Z"/>
    <path d="M409.6,606v-5.6h1.2v.3c0,.3.2.3.3.2.3-.3.8-.6,1.4-.6,1.1,0,1.8.9,1.8,2v3.7h-1.2v-3.6c0-.7-.4-1.1-.9-1.1-.8,0-1.5.9-1.5,1.7v3.1h-1.2Z"/>
  </g>
  <g id="icon_x5F_prospectif_x5F_02">
    <path class="st3" d="M215.7,126.6c32.4,0,58.7-26.3,58.7-58.8s-26.3-58.8-58.7-58.8-58.7,26.3-58.7,58.8,26.3,58.8,58.7,58.8Z"/>
    <path d="M186.6,48.5v-1.4h7.1v1.4h-2c-.4,0-.7.2-.7.6v6h-1.9v-6c0-.4-.3-.6-.7-.6h-2,0Z"/>
    <path d="M194.9,55.2v-8.1h1.9v2.5c0,.3.3.6.6.6h2.5c.3,0,.6-.3.6-.6v-2.5h1.9v8.1h-1.9v-2.9c0-.3-.3-.6-.6-.6h-2.5c-.3,0-.6.3-.6.6v2.9h-1.9Z"/>
    <path d="M204.4,55.2v-8.1h6v1.4h-3.6c-.4,0-.6.2-.6.6v.4c0,.3.2.6.6.6h3.3v1.4h-3.3c-.4,0-.6.3-.6.6v1.1c0,.3.2.6.6.6h3.6v1.4h-6ZM208.1,46.3h-1.2l1.2-1.6h1.9l-1.9,1.6Z"/>
    <path d="M211.5,51.2c0-2.3,1.9-4.2,4.5-4.2s4.5,1.8,4.5,4.2-1.9,4.2-4.5,4.2-4.5-1.8-4.5-4.2ZM218.5,51.2c0-1.5-1-2.6-2.5-2.6s-2.5,1.1-2.5,2.6,1,2.6,2.5,2.6,2.5-1.1,2.5-2.6Z"/>
    <path d="M222,55.2v-8.1h4.7c1.6,0,2.7,1,2.7,2.2s-.8,1.9-2.1,2c-.5,0-.6.4-.3.7l2.5,3.1h-2.2l-2.6-3.4c-.3-.4-.8-.3-.8.3v3.1h-1.9ZM223.8,49.5c0,.3.2.6.6.6h2.2c.5,0,.9-.3.9-.8s-.4-.8-.9-.8h-2.2c-.4,0-.6.2-.6.6v.5Z"/>
    <path d="M230.8,55.2v-8.1h1.9v8.1h-1.9Z"/>
    <path d="M234.6,55.2v-8.1h6v1.4h-3.6c-.4,0-.6.2-.6.6v.4c0,.3.2.6.6.6h3.3v1.4h-3.3c-.4,0-.6.3-.6.6v1.1c0,.3.2.6.6.6h3.6v1.4h-6Z"/>
    <path d="M176.9,65.7v-1.2h5.8c.2,0,.3-.2.1-.4l-1.7-1.5h1.7l2.4,2.5-2.4,2.5h-1.7l1.7-1.6c.2-.2.1-.4-.1-.4h-5.8Z"/>
    <path d="M189.9,69.1v-8.1h4.3c1.3,0,2.2.9,2.2,2.1s-.9,2-2.3,2c-.5,0-.6.4-.3.7l2.7,3.3h-1.6l-2.9-3.7c-.4-.4-.9-.3-.9.3v3.4h-1.3,0ZM191.2,63.4c0,.4.2.6.6.6h2.3c.6,0,1-.4,1-1s-.4-.9-1-.9h-2.3c-.4,0-.6.2-.6.6v.7Z"/>
    <path d="M200.3,63.2c1.6,0,2.7,1.1,2.7,2.7s0,.3,0,.4h-3.9c-.2,0-.3,0-.3.4,0,.7.6,1.5,1.6,1.5s1.2-.3,1.5-.9h1.2c-.3,1.1-1.3,1.9-2.7,1.9s-2.8-1.3-2.8-3.1,1.2-3,2.8-3h0ZM201.4,65.4c.2,0,.3-.1.3-.2,0-.4-.5-1.1-1.5-1.1s-1.5.7-1.5,1.1,0,.2.3.2h2.5Z"/>
    <path d="M204.2,66.2c0-1.7,1.2-3,3.1-3s2.8,1,3,2.3h-1.3c-.2-.8-.8-1.3-1.7-1.3s-1.8.9-1.8,2,.7,2,1.8,2,1.5-.5,1.7-1.3h1.3c-.2,1.3-1.4,2.3-3,2.3s-3.1-1.4-3.1-3Z"/>
    <path d="M212,69.1v-8.7h1.2v2.7c0,.4.1.5.3.5.4,0,.6-.5,1.5-.5s1.9.9,1.9,2.1v3.8h-1.2v-3.7c0-.7-.4-1.1-1-1.1-.9,0-1.5.9-1.5,1.7v3.2h-1.2,0Z"/>
    <path d="M221.4,63.2c1.6,0,2.7,1.1,2.7,2.7s0,.3,0,.4h-3.9c-.2,0-.3,0-.3.4,0,.7.6,1.5,1.6,1.5s1.2-.3,1.5-.9h1.2c-.3,1.1-1.3,1.9-2.7,1.9s-2.8-1.3-2.8-3.1,1.2-3,2.8-3h0ZM222.6,65.4c.2,0,.3-.1.3-.2,0-.4-.5-1.1-1.5-1.1s-1.5.7-1.5,1.1,0,.2.3.2h2.5Z"/>
    <path d="M225.9,69.1v-5.8h1.2v.3c0,.1,0,.2.2.2.3,0,.5-.6,1.3-.6s1.4.7,1.2,2v.3h-1.2v-.8c0-.4-.2-.6-.5-.6-.5,0-1,.7-1,1.8v3.1h-1.2Z"/>
    <path d="M230.9,66.2c0-1.7,1.2-3,3.1-3s2.8,1,3,2.3h-1.3c-.2-.8-.8-1.3-1.7-1.3s-1.8.9-1.8,2,.7,2,1.8,2,1.5-.5,1.7-1.3h1.3c-.2,1.3-1.4,2.3-3,2.3s-3.1-1.4-3.1-3Z"/>
    <path d="M238.6,69.1v-8.7h1.2v2.7c0,.4.1.5.3.5.4,0,.6-.5,1.5-.5s1.9.9,1.9,2.1v3.8h-1.2v-3.7c0-.7-.4-1.1-1-1.1-.9,0-1.5.9-1.5,1.7v3.2h-1.2,0Z"/>
    <path d="M248.1,63.2c1.6,0,2.7,1.1,2.7,2.7s0,.3,0,.4h-3.9c-.2,0-.3,0-.3.4,0,.7.6,1.5,1.6,1.5s1.2-.3,1.5-.9h1.2c-.3,1.1-1.3,1.9-2.7,1.9s-2.8-1.3-2.8-3.1,1.2-3,2.8-3h0ZM249.3,65.4c.2,0,.3-.1.3-.2,0-.4-.5-1.1-1.5-1.1s-1.5.7-1.5,1.1,0,.2.3.2h2.5Z"/>
    <path d="M179.2,81.3c0-1.1.9-1.7,2.2-1.8h1.2c.3-.1.5-.2.5-.6,0-.6-.4-.9-1.2-.9s-1.1.3-1.3.8h-1.3c.1-1,1-1.8,2.5-1.8s2.4.7,2.4,2v3.9h-1.2v-.2c0-.2-.1-.3-.3-.2-.6.4-1.2.5-1.8.5-1.1,0-1.9-.7-1.9-1.7h0ZM182.7,81.6c.3-.2.4-.4.4-.6v-.4c0-.3-.1-.4-.5-.4h-1.1c-.8.2-1.1.5-1.1,1s.3.8.9.8.9-.1,1.4-.5Z"/>
    <path d="M186,80c0-1.7,1.2-3,3.1-3s2.8,1,3,2.3h-1.3c-.2-.8-.8-1.3-1.7-1.3s-1.8.9-1.8,2,.7,2,1.8,2,1.5-.5,1.7-1.3h1.3c-.2,1.3-1.4,2.3-3,2.3s-3.1-1.4-3.1-3Z"/>
    <path d="M193.3,81.3c0-1.1.9-1.7,2.2-1.8h1.2c.3-.1.5-.2.5-.6,0-.6-.4-.9-1.2-.9s-1.1.3-1.3.8h-1.3c.1-1,1-1.8,2.5-1.8s2.4.7,2.4,2v3.9h-1.2v-.2c0-.2-.1-.3-.3-.2-.6.4-1.2.5-1.8.5-1.1,0-1.9-.7-1.9-1.7h0ZM196.9,81.6c.3-.2.4-.4.4-.6v-.4c0-.3-.1-.4-.5-.4h-1.1c-.8.2-1.1.5-1.1,1s.3.8.9.8.9-.1,1.4-.5Z"/>
    <path d="M206.1,82.9h-1.2v-.2c0-.2,0-.2-.2-.2-.3,0-.7.6-1.8.6-1.6,0-2.8-1.2-2.8-3,0-1.8,1.2-3,2.8-3s1.5.6,1.8.6.2,0,.2-.3v-3.1h1.2v8.7ZM203,78c-1,0-1.6.8-1.6,2s.6,2,1.6,2,1.9-1,1.9-2-.8-2-1.9-2Z"/>
    <path d="M210.7,77c1.6,0,2.7,1.1,2.7,2.7s0,.3,0,.4h-3.9c-.2,0-.3,0-.3.4,0,.7.6,1.5,1.6,1.5s1.2-.3,1.5-.9h1.2c-.3,1.1-1.3,1.9-2.7,1.9s-2.8-1.3-2.8-3.1,1.2-3,2.8-3h0ZM211.9,79.3c.2,0,.3-.1.3-.2,0-.4-.5-1.1-1.5-1.1s-1.5.7-1.5,1.1,0,.2.3.2h2.5ZM211.2,76.3h-.9l.8-2h1.5l-1.4,2Z"/>
    <path d="M215.1,82.9v-5.8h1.2v.3c0,.1,0,.2.1.2.2,0,.5-.6,1.5-.6s1.2.6,1.6.6.7-.6,1.8-.6,1.9.9,1.9,2.1v3.8h-1.2v-3.7c0-.7-.4-1.2-1-1.2s-1.2.6-1.2,1.5v3.4h-1.2v-3.7c0-.7-.4-1.2-1-1.2s-1.2.6-1.2,1.5v3.4h-1.2Z"/>
    <path d="M225.2,75.5c0-.5.3-.8.8-.8s.9.4.9.8-.4.8-.9.8-.8-.4-.8-.8ZM225.4,82.9v-5.8h1.2v5.8h-1.2Z"/>
    <path d="M234.3,85.2h-1.2v-2.6c0-.1,0-.2-.2-.2-.3,0-.7.6-1.8.6-1.6,0-2.7-1.2-2.7-3s1.1-3,2.7-3,1.5.7,1.8.7.2,0,.2-.2v-.3h1.2v8.1h0ZM231.3,78c-1,0-1.6.8-1.6,2s.6,2,1.6,2,1.9-1,1.9-2-.7-2-1.9-2Z"/>
    <path d="M236.4,77.1h1.2v3.7c0,.8.3,1.3.9,1.3.8,0,1.4-.9,1.4-1.7v-3.2h1.2v5.8h-1.2v-.4c0-.1,0-.2-.1-.2-.3,0-.6.7-1.6.7s-1.9-.8-1.9-2.1v-3.8Z"/>
    <path d="M245.8,77c1.6,0,2.7,1.1,2.7,2.7s0,.3,0,.4h-3.9c-.2,0-.3,0-.3.4,0,.7.6,1.5,1.6,1.5s1.2-.3,1.5-.9h1.2c-.3,1.1-1.3,1.9-2.7,1.9s-2.8-1.3-2.8-3.1,1.2-3,2.8-3h0ZM247,79.3c.2,0,.3-.1.3-.2,0-.4-.5-1.1-1.5-1.1s-1.5.7-1.5,1.1,0,.2.3.2h2.5Z"/>
  </g>
  <g id="icon_x5F_prospectif_x5F_01">
    <path class="st3" d="M98.7,176c32.4,0,58.7-26.3,58.7-58.8s-26.3-58.8-58.7-58.8-58.7,26.3-58.7,58.8,26.3,58.8,58.7,58.8Z"/>
    <path d="M66.8,105.4l3.3-8.1h1.9l3.3,8.1h-2l-.8-2c-.1-.3-.4-.5-.7-.5h-1.7c-.4,0-.6.2-.7.5l-.8,2h-1.9,0ZM71.6,101.6c.2,0,.3-.1.2-.4l-.5-1.4c-.1-.3-.4-.3-.5,0l-.6,1.4c0,.2,0,.4.2.4h1.2Z"/>
    <path d="M76.4,105.4v-8.1h4.5c1.7,0,2.8,1.1,2.8,2.3s-1.1,2.3-2.8,2.3h-2c-.3,0-.6.2-.6.5v2.9h-1.9ZM78.3,100c0,.3.2.6.6.6h1.9c.6,0,1-.4,1-.9s-.4-.9-1-.9h-1.9c-.3,0-.6.2-.6.6v.7Z"/>
    <path d="M84.9,105.4v-8.1h4.5c1.7,0,2.8,1.1,2.8,2.3s-1.1,2.3-2.8,2.3h-2c-.3,0-.6.2-.6.5v2.9h-1.9ZM86.7,100c0,.3.2.6.6.6h1.9c.6,0,1-.4,1-.9s-.4-.9-1-.9h-1.9c-.3,0-.6.2-.6.6v.7Z"/>
    <path d="M93.3,105.4v-8.1h1.9v6c0,.4.2.7.7.7h2.6v1.4h-5.1Z"/>
    <path d="M99.7,105.4v-8.1h1.9v8.1h-1.9Z"/>
    <path d="M103.1,101.4c0-2.3,1.9-4.2,4.6-4.2s4.6,1.8,4.6,4.2-.3,1.8-.9,2.6c-.2.2-.2.4,0,.5l.8.9h-1.6l-.2-.2c-.1-.2-.3-.2-.5,0-.6.3-1.4.5-2.2.5-2.7,0-4.6-1.8-4.6-4.2ZM108.7,103.5c0-.1,0-.3-.2-.4l-2-2.3h1.6l1.3,1.5c.1.2.2.2.4.2.4,0,.5-.7.5-1.2,0-1.5-1-2.6-2.6-2.6s-2.6,1.1-2.6,2.6,1,2.6,2.6,2.6,1.1-.1,1.1-.5h0Z"/>
    <path d="M113.7,102.2v-4.9h1.9v5c0,1.1.6,1.7,1.6,1.7s1.6-.7,1.6-1.7v-5h1.9v4.9c0,2.2-1.4,3.4-3.5,3.4s-3.5-1.2-3.5-3.4h0Z"/>
    <path d="M122.5,105.4v-8.1h6v1.4h-3.6c-.4,0-.6.2-.6.6v.4c0,.3.2.6.6.6h3.3v1.4h-3.3c-.4,0-.6.3-.6.6v1.1c0,.3.2.6.6.6h3.6v1.4h-6ZM126.2,96.5h-1.2l1.2-1.6h1.9l-1.9,1.6Z"/>
    <path d="M59.9,115.9v-1.2h5.8c.2,0,.3-.2.1-.4l-1.7-1.5h1.7l2.4,2.5-2.4,2.5h-1.7l1.7-1.6c.2-.2.1-.4-.1-.4h-5.8Z"/>
    <path d="M72,112.3v-1.1h6.6v1.1h-1.9c-.5,0-.8.3-.8.8v6.2h-1.3v-6.2c0-.5-.3-.8-.8-.8h-1.9Z"/>
    <path d="M81.2,113.4c1.6,0,2.7,1.1,2.7,2.7s0,.3,0,.4h-3.9c-.2,0-.3,0-.3.4,0,.7.6,1.5,1.6,1.5s1.2-.3,1.5-.9h1.2c-.3,1.1-1.3,1.9-2.7,1.9s-2.8-1.3-2.8-3.1,1.2-3,2.8-3h0ZM82.4,115.6c.2,0,.3-.1.3-.2,0-.4-.5-1.1-1.5-1.1s-1.5.7-1.5,1.1,0,.2.3.2h2.5Z"/>
    <path d="M85.2,116.4c0-1.7,1.2-3,3.1-3s2.8,1,3,2.3h-1.3c-.2-.8-.8-1.3-1.7-1.3s-1.8.9-1.8,2,.7,2,1.8,2,1.5-.5,1.7-1.3h1.3c-.2,1.3-1.4,2.3-3,2.3s-3.1-1.4-3.1-3Z"/>
    <path d="M93,119.3v-8.7h1.2v2.7c0,.4.1.5.3.5.4,0,.6-.5,1.5-.5s1.9.9,1.9,2.1v3.8h-1.2v-3.7c0-.7-.4-1.1-1-1.1-.9,0-1.5.9-1.5,1.7v3.2h-1.2,0Z"/>
    <path d="M100,119.3v-5.8h1.2v.3c0,.3.2.3.3.2.3-.3.8-.6,1.4-.6,1.2,0,1.9.9,1.9,2.1v3.8h-1.2v-3.7c0-.7-.4-1.1-.9-1.1-.8,0-1.5.9-1.5,1.7v3.2h-1.2Z"/>
    <path d="M106.8,111.9c0-.5.3-.8.8-.8s.9.4.9.8-.4.8-.9.8-.8-.4-.8-.8ZM107,119.3v-5.8h1.2v5.8h-1.2Z"/>
    <path d="M115.9,121.6h-1.2v-2.6c0-.1,0-.2-.2-.2-.3,0-.7.6-1.8.6-1.6,0-2.7-1.2-2.7-3s1.1-3,2.7-3,1.5.7,1.8.7.2,0,.2-.2v-.3h1.2v8.1h0ZM112.9,114.4c-1,0-1.6.8-1.6,2s.6,2,1.6,2,1.9-1,1.9-2-.7-2-1.9-2Z"/>
    <path d="M118,113.5h1.2v3.7c0,.8.3,1.3.9,1.3.8,0,1.4-.9,1.4-1.7v-3.2h1.2v5.8h-1.2v-.4c0-.1,0-.2-.1-.2-.3,0-.6.7-1.6.7s-1.9-.8-1.9-2.1v-3.8Z"/>
    <path d="M127.4,113.4c1.6,0,2.7,1.1,2.7,2.7s0,.3,0,.4h-3.9c-.2,0-.3,0-.3.4,0,.7.6,1.5,1.6,1.5s1.2-.3,1.5-.9h1.2c-.3,1.1-1.3,1.9-2.7,1.9s-2.8-1.3-2.8-3.1,1.2-3,2.8-3h0ZM128.6,115.6c.2,0,.3-.1.3-.2,0-.4-.5-1.1-1.5-1.1s-1.5.7-1.5,1.1,0,.2.3.2h2.5Z"/>
    <path d="M131.3,117.5h1.3c0,.7.5,1,1.1,1s1-.4,1-.8-.2-.7-.8-.9l-.7-.2c-1.1-.2-1.5-.8-1.5-1.6s.8-1.7,2.1-1.7,2.1.6,2.2,1.7h-1.2c-.1-.6-.5-.8-1-.8s-.9.3-.9.7.3.6.7.7l.7.2c1.2.3,1.7.9,1.7,1.7s-.8,1.8-2.2,1.8-2.4-.7-2.4-1.9h0Z"/>
    <path d="M54.2,129.7v-1.2h5.8c.2,0,.3-.2.1-.4l-1.7-1.5h1.7l2.4,2.5-2.4,2.5h-1.7l1.7-1.6c.2-.2.1-.4-.1-.4h-5.8Z"/>
    <path d="M67.2,133.1v-8.1h4.2c1.4,0,2.4,1,2.4,2.2s-1,2.2-2.4,2.2h-2.2c-.4,0-.6.2-.6.6v3.1h-1.3ZM68.5,127.7c0,.4.2.6.6.6h2.1c.7,0,1.2-.5,1.2-1.1s-.5-1.1-1.2-1.1h-2.1c-.4,0-.6.2-.6.6v.9Z"/>
    <path d="M75.1,133.1v-5.8h1.2v.3c0,.1,0,.2.2.2.3,0,.5-.6,1.3-.6s1.4.7,1.2,2v.3h-1.2v-.8c0-.4-.2-.6-.5-.6-.5,0-1,.7-1,1.8v3.1h-1.2Z"/>
    <path d="M80.1,130.3c0-1.7,1.2-3,3.1-3s3.1,1.4,3.1,3-1.2,3-3.1,3-3.1-1.4-3.1-3ZM85.1,130.3c0-1.1-.7-2-1.9-2s-1.9.9-1.9,2,.7,2,1.9,2,1.9-.9,1.9-2Z"/>
    <path d="M87.6,131.4h1.3c0,.7.5,1,1.1,1s1-.4,1-.8-.2-.7-.8-.9l-.7-.2c-1.1-.2-1.5-.8-1.5-1.6s.8-1.7,2.1-1.7,2.1.6,2.2,1.7h-1.2c-.1-.6-.5-.8-1-.8s-.9.3-.9.7.3.6.7.7l.7.2c1.2.3,1.7.9,1.7,1.7s-.8,1.8-2.2,1.8-2.4-.7-2.4-1.9h0Z"/>
    <path d="M94,135.4v-8.1h1.2v.3c0,.2,0,.2.2.2.3,0,.7-.7,1.8-.7s2.7,1.2,2.7,3-1.1,3-2.7,3-1.4-.6-1.8-.6-.2,0-.2.2v2.6h-1.2ZM97,132.3c1,0,1.6-.8,1.6-2s-.6-2-1.6-2-1.9,1-1.9,2,.7,2,1.9,2Z"/>
    <path d="M104,127.2c1.6,0,2.7,1.1,2.7,2.7s0,.3,0,.4h-3.9c-.2,0-.3,0-.3.4,0,.7.6,1.5,1.6,1.5s1.2-.3,1.5-.9h1.2c-.3,1.1-1.3,1.9-2.7,1.9s-2.8-1.3-2.8-3.1,1.2-3,2.8-3h0ZM105.1,129.5c.2,0,.3-.1.3-.2,0-.4-.5-1.1-1.5-1.1s-1.5.7-1.5,1.1,0,.2.3.2h2.5Z"/>
    <path d="M107.9,130.3c0-1.7,1.2-3,3.1-3s2.8,1,3,2.3h-1.3c-.2-.8-.8-1.3-1.7-1.3s-1.8.9-1.8,2,.7,2,1.8,2,1.5-.5,1.7-1.3h1.3c-.2,1.3-1.4,2.3-3,2.3s-3.1-1.4-3.1-3Z"/>
    <path d="M114.8,128.3v-1h.8c.4,0,.5-.2.5-.6v-.7l1.2-1.1v1.8c0,.4.2.6.5.6h1.1v1h-1.1c-.4,0-.5.2-.5.6v2.5c0,.5.2.7.6.7h1.4v1h-1.4c-1.1,0-1.8-.6-1.8-1.7v-2.5c0-.4-.2-.6-.5-.6h-.8,0Z"/>
    <path d="M120.5,125.7c0-.5.3-.8.8-.8s.9.4.9.8-.4.8-.9.8-.8-.4-.8-.8ZM120.8,133.1v-5.8h1.2v5.8h-1.2Z"/>
    <path d="M123.3,127.4h1.3l1.6,3.8c.1.3.4.3.6,0l1.6-3.8h1.2l-2.4,5.8h-1.4l-2.4-5.8h0Z"/>
    <path d="M133.2,127.2c1.6,0,2.7,1.1,2.7,2.7s0,.3,0,.4h-3.9c-.2,0-.3,0-.3.4,0,.7.6,1.5,1.6,1.5s1.2-.3,1.5-.9h1.2c-.3,1.1-1.3,1.9-2.7,1.9s-2.8-1.3-2.8-3.1,1.2-3,2.8-3h0ZM134.3,129.5c.2,0,.3-.1.3-.2,0-.4-.5-1.1-1.5-1.1s-1.5.7-1.5,1.1,0,.2.3.2h2.5Z"/>
    <path d="M137,131.4h1.3c0,.7.5,1,1.1,1s1-.4,1-.8-.2-.7-.8-.9l-.7-.2c-1.1-.2-1.5-.8-1.5-1.6s.8-1.7,2.1-1.7,2.1.6,2.2,1.7h-1.2c-.1-.6-.5-.8-1-.8s-.9.3-.9.7.3.6.7.7l.7.2c1.2.3,1.7.9,1.7,1.7s-.8,1.8-2.2,1.8-2.4-.7-2.4-1.9h0Z"/>
  </g>
  <g id="Prospectif">
    <path d="M200,214.9l2.3-29.6,15.1,1.2c4.9.4,8.1,4.2,7.8,8.5-.3,4.3-4.2,7.6-9,7.2l-8.5-.7c-1.5-.1-2.3.6-2.5,2.1l-.9,11.7-4.4-.3h0ZM205.9,195.2c-.1,1.5.6,2.3,2.1,2.5l8.1.6c2.6.2,4.5-1.5,4.7-3.8.2-2.3-1.5-4.2-4.1-4.4l-8.1-.6c-1.5-.1-2.3.6-2.5,2.1l-.3,3.6Z"/>
    <path d="M229,217.1l1.6-21.2,4.1.3v1.1c-.1.5,0,.8.4.8.9,0,1.8-2.1,4.9-1.9,3.2.2,4.8,2.7,3.9,7.6l-.2,1.1-3.9-.3.2-2.8c.1-1.6-.5-2.4-1.6-2.5-2-.2-4,2.2-4.3,6.5l-.9,11.6-4.1-.3Z"/>
    <path d="M247.7,208c.5-6.1,5.3-10.7,12.2-10.2,6.9.5,10.9,5.9,10.4,11.9-.5,6.1-5.3,10.7-12.1,10.2-6.9-.5-10.9-5.9-10.4-11.9h0ZM266.1,209.4c.3-4.1-2.1-7.8-6.5-8.1-4.4-.3-7.3,2.9-7.7,7-.3,4.2,2.1,7.8,6.5,8.1,4.4.3,7.3-2.9,7.7-7Z"/>
    <path d="M274.6,214.3l4.2.3c0,2.6,1.6,3.9,4.1,4.1,2.8.2,4-1.1,4.2-2.9.1-1.4-.6-2.9-2.8-3.5l-2.5-.7c-3.8-1.1-5.4-3.4-5.2-6.2.3-3.5,3.3-6,8.2-5.6,4.2.3,7.3,2.7,7.3,7l-4.2-.3c-.2-2.3-1.5-3.4-3.6-3.5-2.3-.2-3.6.9-3.7,2.5-.1,1.4.8,2.4,2.4,2.9l2.5.7c4.2,1.3,5.8,3.9,5.6,6.8-.3,3.8-3.4,6.4-8.6,6-5.2-.4-8.3-3.4-7.9-7.5h0Z"/>
    <path d="M297,230.9l2.3-29.6,4.1.3v1.3c-.1.6,0,.8.4.8,1.1,0,2.7-2.3,6.9-2,5.7.4,9.4,5.3,8.9,11.8-.5,6.5-4.9,10.7-10.6,10.3-4-.3-5.1-2.7-6.3-2.8-.4,0-.8.2-.8.7l-.7,9.4-4.1-.3h0ZM308.7,220.3c3.9.3,6.3-2.7,6.6-7.1.3-4.4-1.6-7.7-5.5-8-4.3-.3-7.3,3.4-7.6,7-.3,3.7,2.1,7.8,6.4,8.1h0Z"/>
    <path d="M335.5,203.6c5.7.4,9.3,4.8,8.8,10.7,0,.6-.1,1.1-.2,1.6l-14.3-1.1c-.8,0-1.2.2-1.3,1.3-.2,2.6,1.7,6,5.6,6.3,2.5.2,4.8-1,5.8-3.1l4.1.3c-1.5,3.8-5.2,6.5-10.1,6.1-6.2-.5-9.9-5.5-9.4-12,.5-6.8,5.3-10.6,11-10.1h0ZM339.3,212.3c.7,0,1-.3,1.1-.9.1-1.5-1.4-4.2-5.3-4.5-3.9-.3-6,2.2-6.1,3.7,0,.6.3,1,.9,1l9.3.7h0Z"/>
    <path d="M349.3,215.8c.5-6.1,5.3-10.7,12.1-10.2,5.8.5,9.7,4.5,10,9.4l-4.2-.3c-.4-3.1-2.7-5.3-6.1-5.6-4.3-.3-7.2,2.9-7.6,7-.3,4.1,2.1,7.8,6.4,8.1,3.3.3,6-1.6,6.9-4.6l4.2.3c-1.1,4.8-5.5,8.2-11.4,7.7-6.8-.5-10.8-5.9-10.4-11.9h0Z"/>
    <path d="M374.8,210.5l.3-3.4,2.8.2c1.4.1,2.1-.6,2.2-2l.2-2.5,4.4-3.5-.5,6.3c-.1,1.4.4,2.2,1.8,2.4l3.9.3-.3,3.4-3.9-.3c-1.4-.1-2.1.6-2.2,2l-.7,9.6c-.1,1.8.5,2.7,2,2.8l5.2.4-.3,3.4-5.2-.4c-4-.3-6.1-2.8-5.8-6.7l.7-9.4c.1-1.4-.4-2.2-1.8-2.4l-2.8-.2Z"/>
    <path d="M396.4,202.8c.1-1.7,1.5-2.9,3.2-2.7,1.7.1,2.9,1.5,2.7,3.2-.1,1.7-1.5,2.9-3.2,2.7-1.7-.1-2.9-1.5-2.7-3.2ZM395.2,230l1.6-21.2,4.1.3-1.6,21.2-4.1-.3Z"/>
    <path d="M406.2,212.9l.3-3.3,3.6.3c1,0,1.6-.4,1.6-1.4v-1.7c.3-2.2,2.1-4.3,4.9-4.1l4.3.3-.3,3.4-3.1-.2c-.9,0-1.6.3-1.7,1.5v1.1c-.2,1,.3,1.6,1.3,1.6l4.9.4-.3,3.3-4.9-.4c-1,0-1.6.4-1.6,1.4l-1.3,16.3-4.1-.3,1.3-16.3c0-1-.4-1.6-1.4-1.6l-3.6-.3h0Z"/>
  </g>
  <g id="Diffusion">
    <path d="M531,402.8l-4.3-29.4,7.6-1.1c11-1.6,16.1,4.1,17.3,12.5,1.2,8.4-2,15.3-13,16.9l-7.7,1.1h0ZM534.3,395c.3,2.2,1.7,3.3,3.9,2.9h.8c5.4-.9,9.3-4.7,8.1-12.5-1.1-7.8-5.9-10.4-11.4-9.6h-.7c-2.2.4-3.3,1.8-2.9,4l2.2,15.1Z"/>
    <path d="M555.7,371.7c-.2-1.6.8-3.1,2.5-3.4,1.7-.3,3.1.9,3.4,2.5.2,1.6-.8,3.1-2.5,3.4-1.7.3-3.1-.9-3.4-2.5ZM560.6,398.5l-3.1-21,4-.6,3.1,21-4,.6Z"/>
    <path d="M567.5,379.4l-.5-3.3,3.5-.5c1-.1,1.4-.8,1.3-1.7l-.2-1.7c-.3-2.2,1-4.6,3.8-5l4.3-.6.5,3.4-3.1.4c-.9.1-1.5.6-1.4,1.8l.2,1.1c.1,1,.8,1.4,1.7,1.3l4.9-.7.5,3.3-4.9.7c-1,.1-1.4.8-1.3,1.7l2.4,16.2-4,.6-2.4-16.2c-.1-1-.8-1.4-1.7-1.3l-3.5.5h0ZM585.4,376.8l-.5-3.3,3.5-.5c1-.1,1.4-.8,1.3-1.7l-.2-1.7c-.3-2.2,1-4.6,3.8-5l4.3-.6.5,3.4-3.1.4c-.9.1-1.5.6-1.4,1.8l.2,1.1c.1,1,.8,1.4,1.7,1.3l4.9-.7.5,3.3-4.9.7c-1,.1-1.4.8-1.3,1.7l2.4,16.2-4,.6-2.4-16.2c-.1-1-.8-1.4-1.7-1.3l-3.5.5h0Z"/>
    <path d="M605.4,370.5l4-.6,1.9,13.3c.4,3,2,4.6,4.2,4.2,3.2-.5,4.9-4.4,4.5-7.2l-1.7-11.6,4-.6,3.1,21-4,.6-.2-1.3c0-.4-.2-.5-.5-.5-1,.1-1.8,2.7-5.5,3.3-4,.6-7.1-1.9-7.9-6.8l-2-13.7h0Z"/>
    <path d="M631,381.8l4.2-.6c.5,2.6,2.4,3.4,4.9,3.1,2.8-.4,3.7-2,3.4-3.7-.2-1.4-1.2-2.7-3.5-2.8l-2.6-.2c-3.9-.2-6-2.2-6.4-4.9-.5-3.4,1.9-6.5,6.7-7.2,4.2-.6,7.7,1,8.7,5.2l-4.2.6c-.7-2.2-2.2-2.9-4.2-2.6-2.3.3-3.3,1.7-3,3.2.2,1.4,1.3,2.2,3,2.3l2.6.2c4.4.3,6.5,2.5,6.9,5.4.5,3.7-1.9,7-7.1,7.7-5.1.7-8.8-1.5-9.4-5.6h0Z"/>
    <path d="M650.5,357.9c-.2-1.6.8-3.1,2.5-3.4,1.7-.3,3.1.9,3.4,2.5.2,1.6-.8,3.1-2.5,3.4-1.7.3-3.1-.9-3.4-2.5ZM655.3,384.7l-3.1-21,4-.6,3.1,21-4,.6Z"/>
    <path d="M664.4,372.6c-.9-6,2.8-11.6,9.6-12.6,6.8-1,11.9,3.3,12.8,9.3.9,6-2.8,11.6-9.6,12.6-6.8,1-11.9-3.3-12.8-9.3h0ZM682.7,370c-.6-4.1-3.8-7.1-8.1-6.5-4.4.6-6.5,4.4-5.9,8.5.6,4.1,3.7,7.1,8.1,6.5,4.3-.6,6.5-4.4,5.9-8.5h0Z"/>
    <path d="M695,378.9l-3.1-21,4-.6.2,1.2c.2,1.1.8,1,1.3.4,1.1-1.4,2.6-2.6,4.8-2.9,4.2-.6,7.3,2.2,7.9,6.5l2,13.9-4,.6-2-13.7c-.4-2.6-2.1-4.1-4.2-3.8-3.1.5-5.1,4.4-4.7,7.2l1.7,11.6-4,.6Z"/>
  </g>
  <g id="Operatoire">
    <path d="M189.7,386.4c4.3-7.4,13.2-10.1,21.1-5.5s10,13.6,5.6,21c-4.3,7.4-13.2,10.1-21.1,5.5-7.9-4.6-10-13.6-5.6-21ZM212.4,399.6c3.2-5.6,2-12-3.6-15.2-5.6-3.3-11.8-1.2-15,4.4-3.2,5.5-2,12,3.6,15.2,5.6,3.3,11.8,1.2,15-4.4h0Z"/>
    <path d="M210.4,425.5l15-25.7,3.5,2.1-.6,1.1c-.3.5-.2.8,0,1,.9.5,3.4-.9,7.1,1.2,4.9,2.9,6.1,8.9,2.9,14.5-3.3,5.6-9.1,7.5-14,4.7-3.4-2-3.4-4.7-4.5-5.2-.4-.2-.8-.1-1.1.3l-4.8,8.2-3.5-2.1h0ZM225.6,421c3.4,2,6.8.3,9.1-3.5,2.2-3.9,2-7.7-1.4-9.6-3.7-2.2-8-.1-9.9,3-1.9,3.2-1.5,7.9,2.2,10.1Z"/>
    <path d="M257,417.7c4.9,2.9,6.3,8.4,3.3,13.5-.3.5-.6.9-.9,1.3l-12.4-7.2c-.7-.4-1.2-.3-1.8.6-1.3,2.2-1.1,6.1,2.3,8.1,2.2,1.3,4.7,1.2,6.6-.3l3.6,2.1c-3,2.8-7.5,3.6-11.8,1.1-5.4-3.1-6.5-9.3-3.2-14.9,3.4-5.9,9.4-7.2,14.4-4.3h0ZM256.6,427.2c.6.4,1.1.2,1.3-.3.7-1.3.6-4.4-2.8-6.4-3.3-1.9-6.3-.6-7.1.7-.3.5-.2,1,.4,1.3l8.1,4.7h0ZM260,416.3l-2.7-1.6,6.5-4.8,4.4,2.5-8.1,3.9Z"/>
    <path d="M260.3,444.7l10.7-18.3,3.6,2.1-.5.9c-.3.4-.2.8,0,.9.8.4,2.6-1.1,5.2.4,2.8,1.6,3.2,4.5.2,8.5l-.7.9-3.4-2,1.4-2.4c.8-1.4.6-2.4-.4-2.9-1.7-1-4.6.2-6.7,3.9l-5.8,10-3.5-2.1h0Z"/>
    <path d="M278.9,448.8c2.1-3.6,6.2-3.7,10.4-1.7l4.2,2c1.1.6,1.7.5,2.4-.6,1.1-1.9.5-3.9-2.1-5.4-2.3-1.4-4.2-1.2-5.8.2l-3.7-2.1c2.2-3.1,6.6-3.7,11.2-1.1,4.6,2.7,6.1,6.7,3.8,10.6l-7.2,12.4-3.5-2,.4-.8c.4-.6,0-1.1-.7-1.1-2.7,0-5-.6-6.6-1.6-3.4-2-4.7-5.6-2.8-8.9h0ZM289.6,456.3c1.5,0,2-.4,2.4-1.1l.7-1.3c.5-.9.3-1.5-.9-2.1l-3.8-1.8c-2.7-1.3-4.5-.9-5.4.8-.9,1.6-.4,3.2,1.5,4.3,1.2.7,3.2,1.3,5.5,1.2h0Z"/>
    <path d="M305.4,450.3l1.7-2.9,2.5,1.4c1.2.7,2.1.3,2.8-.9l1.2-2.1,5.4-1.2-3.2,5.4c-.7,1.2-.6,2.2.6,2.9l3.4,2-1.7,2.9-3.4-2c-1.2-.7-2.1-.3-2.8.9l-4.8,8.3c-.9,1.6-.7,2.6.6,3.4l4.5,2.6-1.7,2.9-4.5-2.6c-3.4-2-4.3-5.2-2.3-8.5l4.7-8.1c.7-1.2.6-2.2-.6-2.9l-2.5-1.4h0Z"/>
    <path d="M318.8,466.5c3.1-5.2,9.4-7.3,15.4-3.9,6,3.5,7.3,10,4.2,15.3-3.1,5.2-9.4,7.3-15.4,3.9-6-3.5-7.3-10-4.2-15.3h0ZM334.7,475.8c2.1-3.6,1.5-7.9-2.3-10.1-3.8-2.2-7.9-.6-9.9,3-2.1,3.6-1.5,7.9,2.3,10.1,3.8,2.2,7.9.6,9.9-3h0Z"/>
    <path d="M351.7,466.5c.8-1.4,2.6-1.9,4.1-1.1,1.5.9,1.9,2.6,1.1,4.1-.8,1.4-2.6,1.9-4.1,1.1-1.5-.9-1.9-2.6-1.1-4.1ZM338.8,490.4l10.7-18.3,3.5,2.1-10.7,18.3-3.5-2.1Z"/>
    <path d="M349.8,496.8l10.7-18.3,3.6,2.1-.5.9c-.3.4-.2.8,0,.9.8.4,2.6-1.1,5.2.4,2.8,1.6,3.2,4.5.2,8.5l-.7.9-3.4-2,1.4-2.4c.8-1.4.5-2.4-.4-2.9-1.7-1-4.6.2-6.7,3.9l-5.8,10-3.5-2.1h0Z"/>
    <path d="M385,492.3c4.9,2.9,6.3,8.4,3.3,13.5-.3.5-.6.9-.9,1.3l-12.4-7.2c-.7-.4-1.2-.3-1.8.6-1.3,2.2-1.1,6.1,2.3,8.1,2.2,1.3,4.7,1.2,6.6-.3l3.6,2.1c-3,2.8-7.5,3.6-11.8,1.1-5.4-3.1-6.5-9.3-3.2-14.9,3.4-5.9,9.4-7.2,14.3-4.3h0ZM384.7,501.8c.6.4,1.1.2,1.3-.3.7-1.3.6-4.4-2.8-6.4s-6.3-.6-7.1.7c-.3.5-.2,1,.4,1.3l8.1,4.7h0Z"/>
  </g>
</svg>