<?xml version="1.0" encoding="UTF-8"?>
<svg id="Calque_2" data-name="Calque 2" xmlns="http://www.w3.org/2000/svg" viewBox="0 0 758.03 240.04">
  <g id="Calque_1-2" data-name="Calque 1">
    <g>
      <path d="M0,12.63h126.34v27.04H47.76c-3.88,0-7.16,1.26-9.85,3.79-2.7,2.53-4.04,5.81-4.04,9.85v11.62c0,3.88,1.35,7.12,4.04,9.73,2.69,2.61,5.98,3.92,9.85,3.92h73.53v27.04H47.76c-3.88,0-7.16,1.31-9.85,3.92-2.7,2.61-4.04,5.94-4.04,9.98v69.99H0V12.63Z"/>
      <path d="M151.35,41.06c-3.88-3.79-5.81-8.47-5.81-14.02s1.93-10.19,5.81-13.9c3.87-3.7,8.67-5.56,14.4-5.56s10.78,1.86,14.65,5.56c3.87,3.71,5.81,8.34,5.81,13.9s-1.94,10.23-5.81,14.02c-3.88,3.79-8.76,5.68-14.65,5.68s-10.53-1.9-14.4-5.68ZM150.09,63.17h31.58v126.34h-31.58V63.17Z"/>
      <path d="M216.8,0h31.58v189.51h-31.58V0Z"/>
      <path d="M307.38,183.7c-10.7-5.89-18.99-13.85-24.89-23.88-5.9-10.02-8.84-21.1-8.84-33.23s2.95-23.2,8.84-33.23c5.89-10.02,14.19-17.98,24.89-23.88,10.7-5.89,22.95-8.84,36.76-8.84s25.86,2.95,36.64,8.84c10.78,5.9,19.08,13.86,24.89,23.88,5.81,10.02,8.72,21.1,8.72,33.23s-2.91,23.21-8.72,33.23c-5.81,10.02-14.11,17.98-24.89,23.88-10.78,5.89-22.99,8.84-36.64,8.84s-26.07-2.95-36.76-8.84ZM364.11,161.59c5.73-3.62,10.15-8.5,13.27-14.65,3.11-6.15,4.67-12.93,4.67-20.34s-1.56-14.19-4.67-20.34c-3.12-6.15-7.54-11.03-13.27-14.65-5.73-3.62-12.38-5.43-19.96-5.43s-14.49,1.81-20.21,5.43c-5.73,3.62-10.15,8.51-13.27,14.65-3.12,6.15-4.67,12.93-4.67,20.34s1.56,14.19,4.67,20.34c3.12,6.15,7.54,11.03,13.27,14.65,5.72,3.62,12.46,5.43,20.21,5.43s14.23-1.81,19.96-5.43Z"/>
      <path d="M446.73,236.13c-5.9-2.61-10.49-6.02-13.77-10.23-3.28-4.21-4.93-8.84-4.93-13.9,0-4.21.97-7.75,2.91-10.61,1.93-2.87,4.59-5.9,7.96-9.1,1.35-1.18,2.48-2.32,3.41-3.41.93-1.09,1.39-2.06,1.39-2.9,0-.67-.34-1.52-1.01-2.53-.68-1.01-1.43-2.02-2.28-3.03-2.53-2.53-4.46-5.01-5.81-7.45-1.35-2.44-2.02-5.43-2.02-8.97s.84-6.78,2.53-9.22c1.68-2.44,4.04-4.93,7.08-7.45,1.51-1.18,2.73-2.27,3.66-3.28.92-1.01,1.39-2.1,1.39-3.28,0-.84-.42-1.93-1.26-3.28-.85-1.35-1.77-2.78-2.78-4.3-3.03-4.21-5.48-8.29-7.33-12.25-1.86-3.96-2.78-8.72-2.78-14.28,0-8.25,2.4-15.92,7.2-22.99,4.8-7.08,11.37-12.67,19.71-16.8,8.34-4.13,17.64-6.19,27.92-6.19h26.79c3.37,0,5.94-.76,7.71-2.27,1.77-1.51,2.65-3.62,2.65-6.32v-20.47h29.56v15.92c0,5.05-1.26,8.93-3.79,11.62-2.53,2.7-6.15,5.39-10.87,8.08-2.87,1.69-5.05,3.16-6.57,4.42-1.51,1.26-2.27,2.82-2.27,4.67,0,1.18.34,2.4,1.01,3.66.67,1.26,1.52,2.65,2.53,4.17,2.36,3.37,4.17,6.69,5.43,9.98,1.26,3.28,1.9,7.45,1.9,12.51,0,8.76-2.19,16.64-6.57,23.63-4.38,6.99-10.66,12.47-18.83,16.42-8.17,3.96-17.65,5.94-28.42,5.94-6.06,0-12.22-.76-18.45-2.27-3.37-1.01-6.06-.84-8.08.51-2.02,1.35-3.03,3.37-3.03,6.06,0,3.2,1.39,5.69,4.17,7.45,2.78,1.77,6.95,2.65,12.51,2.65h42.45c7.75,0,14.74,1.64,20.97,4.93,6.23,3.28,11.16,7.71,14.78,13.26,3.62,5.56,5.43,11.71,5.43,18.45s-1.81,12.89-5.43,18.45c-3.62,5.56-8.59,9.94-14.91,13.14-6.32,3.2-13.26,4.8-20.85,4.8h-50.28c-7.92,0-14.82-1.31-20.72-3.92ZM525.06,214.02c2.53-2.7,3.79-5.98,3.79-9.85s-1.26-7.16-3.79-9.85c-2.53-2.7-5.73-4.04-9.6-4.04h-42.45c-4.04,0-7.5,1.35-10.36,4.04-2.87,2.69-4.3,6.06-4.3,10.11,0,3.7,1.39,6.91,4.17,9.6,2.78,2.69,6.27,4.04,10.49,4.04h42.45c3.87,0,7.08-1.35,9.6-4.04ZM506.11,123.69c4.71-4.63,7.08-10.32,7.08-17.06s-2.36-12.38-7.08-16.93c-4.72-4.55-10.78-6.82-18.19-6.82s-13.52,2.27-18.32,6.82c-4.8,4.55-7.2,10.19-7.2,16.93s2.4,12.43,7.2,17.06c4.8,4.64,10.9,6.95,18.32,6.95s13.48-2.31,18.19-6.95Z"/>
      <path d="M576.1,41.06c-3.88-3.79-5.81-8.47-5.81-14.02s1.93-10.19,5.81-13.9c3.87-3.7,8.67-5.56,14.4-5.56s10.78,1.86,14.65,5.56c3.87,3.71,5.81,8.34,5.81,13.9s-1.94,10.23-5.81,14.02c-3.88,3.79-8.76,5.68-14.65,5.68s-10.53-1.9-14.4-5.68ZM574.84,63.17h31.58v126.34h-31.58V63.17Z"/>
      <path d="M640.16,91.85c5.47-9.85,13.1-17.52,22.87-22.99,9.77-5.47,20.89-8.21,33.35-8.21,11.79,0,22.36,2.61,31.71,7.83,9.35,5.22,16.63,12.42,21.86,21.6,5.22,9.18,7.83,19.58,7.83,31.21,0,3.03-.25,6.49-.76,10.36h-87.43c-2.19,0-3.79.59-4.8,1.77-1.01,1.18-1.52,3.12-1.52,5.81,0,4.55,1.35,9.18,4.04,13.9,2.69,4.72,6.57,8.59,11.62,11.62,5.05,3.03,10.95,4.55,17.69,4.55s13.05-1.6,18.45-4.8c5.39-3.2,9.35-7.66,11.88-13.39h31.08c-3.37,12.47-10.53,22.49-21.48,30.07-10.95,7.58-24.09,11.37-39.42,11.37-13.14,0-24.64-2.9-34.49-8.72-9.85-5.81-17.43-13.73-22.74-23.75-5.31-10.02-7.96-21.35-7.96-33.98s2.74-24.38,8.21-34.24ZM725.31,109.28c.92-.92,1.39-2.15,1.39-3.66,0-2.86-1.18-6.02-3.54-9.48-2.36-3.45-5.9-6.36-10.61-8.72-4.72-2.36-10.36-3.54-16.93-3.54s-12.25,1.18-17.06,3.54c-4.8,2.36-8.47,5.27-10.99,8.72-2.53,3.45-3.79,6.61-3.79,9.48,0,1.51.46,2.74,1.39,3.66.92.93,2.31,1.39,4.17,1.39h51.55c2.02,0,3.49-.46,4.42-1.39Z"/>
    </g>
  </g>
</svg>